<mxfile host="app.diagrams.net" agent="Mozilla/5.0 (Windows NT 10.0; Win64; x64) AppleWebKit/537.36 (KHTML, like Gecko) Chrome/128.0.0.0 Safari/537.36 Edg/128.0.0.0" version="24.7.10">
  <diagram name="Page-1" id="eQQfFskfL8BkkogWsQ9Y">
    <mxGraphModel dx="1732" dy="557" grid="1" gridSize="10" guides="1" tooltips="1" connect="1" arrows="1" fold="1" page="1" pageScale="1" pageWidth="850" pageHeight="1100" math="0" shadow="0">
      <root>
        <mxCell id="0" />
        <mxCell id="1" parent="0" />
        <mxCell id="0Y0qPALF9OUADg9IuiIY-40" style="edgeStyle=orthogonalEdgeStyle;rounded=0;orthogonalLoop=1;jettySize=auto;html=1;entryX=0.152;entryY=0.052;entryDx=0;entryDy=0;entryPerimeter=0;" edge="1" parent="1" source="0Y0qPALF9OUADg9IuiIY-39" target="0Y0qPALF9OUADg9IuiIY-24">
          <mxGeometry relative="1" as="geometry">
            <Array as="points">
              <mxPoint x="480" y="75" />
              <mxPoint x="480" y="160" />
              <mxPoint x="671" y="160" />
            </Array>
          </mxGeometry>
        </mxCell>
        <mxCell id="0Y0qPALF9OUADg9IuiIY-15" value="" style="rounded=1;whiteSpace=wrap;html=1;fillColor=none;strokeColor=#b85450;strokeWidth=5;" vertex="1" parent="1">
          <mxGeometry x="180" y="180" width="660" height="160" as="geometry" />
        </mxCell>
        <mxCell id="0Y0qPALF9OUADg9IuiIY-22" style="edgeStyle=none;rounded=0;orthogonalLoop=1;jettySize=auto;html=1;" edge="1" parent="1" source="0Y0qPALF9OUADg9IuiIY-1">
          <mxGeometry relative="1" as="geometry">
            <mxPoint x="170" y="260" as="targetPoint" />
          </mxGeometry>
        </mxCell>
        <mxCell id="0Y0qPALF9OUADg9IuiIY-1" value="Feature Branch" style="rounded=1;whiteSpace=wrap;html=1;fillColor=#ffe6cc;strokeColor=#d79b00;" vertex="1" parent="1">
          <mxGeometry x="-25" y="230" width="120" height="60" as="geometry" />
        </mxCell>
        <mxCell id="0Y0qPALF9OUADg9IuiIY-2" value="Developer will complete the whole feature before raising the PR" style="text;html=1;align=center;verticalAlign=middle;whiteSpace=wrap;rounded=0;" vertex="1" parent="1">
          <mxGeometry x="-15" y="320" width="170" height="50" as="geometry" />
        </mxCell>
        <mxCell id="0Y0qPALF9OUADg9IuiIY-3" value="User Story Branch" style="whiteSpace=wrap;html=1;fillColor=#ffe6cc;strokeColor=#d79b00;rounded=1;" vertex="1" parent="1">
          <mxGeometry x="565" y="390" width="120" height="60" as="geometry" />
        </mxCell>
        <mxCell id="0Y0qPALF9OUADg9IuiIY-7" value="" style="endArrow=classic;html=1;rounded=1;exitX=0.5;exitY=0;exitDx=0;exitDy=0;edgeStyle=orthogonalEdgeStyle;curved=0;fillColor=#f8cecc;strokeColor=#b85450;" edge="1" parent="1" source="0Y0qPALF9OUADg9IuiIY-2">
          <mxGeometry width="50" height="50" relative="1" as="geometry">
            <mxPoint x="140" y="320" as="sourcePoint" />
            <mxPoint x="130" y="260" as="targetPoint" />
          </mxGeometry>
        </mxCell>
        <mxCell id="0Y0qPALF9OUADg9IuiIY-8" value="Raise PR" style="text;html=1;align=center;verticalAlign=middle;whiteSpace=wrap;rounded=0;" vertex="1" parent="1">
          <mxGeometry x="95" y="190" width="60" height="30" as="geometry" />
        </mxCell>
        <mxCell id="0Y0qPALF9OUADg9IuiIY-10" value="" style="shape=step;perimeter=stepPerimeter;whiteSpace=wrap;html=1;fixedSize=1;" vertex="1" parent="1">
          <mxGeometry x="200" y="220" width="80" height="80" as="geometry" />
        </mxCell>
        <mxCell id="0Y0qPALF9OUADg9IuiIY-11" value="Run&lt;div&gt;Unit&lt;/div&gt;&lt;div&gt;Test&lt;/div&gt;" style="shape=step;perimeter=stepPerimeter;whiteSpace=wrap;html=1;fixedSize=1;" vertex="1" parent="1">
          <mxGeometry x="277" y="220" width="80" height="80" as="geometry" />
        </mxCell>
        <mxCell id="0Y0qPALF9OUADg9IuiIY-16" value="&lt;h5&gt;&lt;font style=&quot;font-size: 14px;&quot;&gt;1st CI pipeline - Validation Pipeline&lt;/font&gt;&lt;/h5&gt;" style="text;html=1;align=center;verticalAlign=middle;whiteSpace=wrap;rounded=0;" vertex="1" parent="1">
          <mxGeometry x="230" y="140" width="200" height="37" as="geometry" />
        </mxCell>
        <mxCell id="0Y0qPALF9OUADg9IuiIY-17" value="Build" style="text;html=1;align=center;verticalAlign=middle;whiteSpace=wrap;rounded=0;" vertex="1" parent="1">
          <mxGeometry x="213" y="245" width="60" height="30" as="geometry" />
        </mxCell>
        <mxCell id="0Y0qPALF9OUADg9IuiIY-21" value="" style="group" vertex="1" connectable="0" parent="1">
          <mxGeometry x="350" y="200" width="260" height="140" as="geometry" />
        </mxCell>
        <mxCell id="0Y0qPALF9OUADg9IuiIY-12" value="" style="shape=step;perimeter=stepPerimeter;whiteSpace=wrap;html=1;fixedSize=1;" vertex="1" parent="0Y0qPALF9OUADg9IuiIY-21">
          <mxGeometry width="260" height="130" as="geometry" />
        </mxCell>
        <mxCell id="0Y0qPALF9OUADg9IuiIY-20" value="&lt;h1 style=&quot;margin-top: 0px;&quot;&gt;Multiple check&lt;/h1&gt;&lt;div&gt;1. Code Quality by SonarCloud&lt;/div&gt;&lt;div&gt;2. Vulnerability by Github CodeQL&lt;/div&gt;&lt;div&gt;3. Integration by DockerCompose.yml&lt;/div&gt;&lt;div&gt;4. CodeCovergage coverage.py&lt;/div&gt;&lt;div&gt;5. Perormance/ Load testing Jmetet&lt;/div&gt;" style="text;html=1;whiteSpace=wrap;overflow=hidden;rounded=0;" vertex="1" parent="0Y0qPALF9OUADg9IuiIY-21">
          <mxGeometry x="30" width="220" height="140" as="geometry" />
        </mxCell>
        <mxCell id="0Y0qPALF9OUADg9IuiIY-23" value="" style="endArrow=classic;html=1;rounded=1;exitX=0.5;exitY=1;exitDx=0;exitDy=0;edgeStyle=orthogonalEdgeStyle;curved=0;fillColor=#f8cecc;strokeColor=#b85450;" edge="1" parent="1" source="0Y0qPALF9OUADg9IuiIY-8">
          <mxGeometry width="50" height="50" relative="1" as="geometry">
            <mxPoint x="135" y="350" as="sourcePoint" />
            <mxPoint x="160" y="260" as="targetPoint" />
          </mxGeometry>
        </mxCell>
        <mxCell id="0Y0qPALF9OUADg9IuiIY-9" value="" style="image;sketch=0;aspect=fixed;html=1;points=[];align=center;fontSize=12;image=img/lib/mscae/Azure_Pipelines.svg;" vertex="1" parent="1">
          <mxGeometry x="190" y="310" width="50" height="50" as="geometry" />
        </mxCell>
        <mxCell id="0Y0qPALF9OUADg9IuiIY-24" value="" style="shape=mxgraph.mockup.markup.redX;fillColor=#ff0000;html=1;shadow=0;whiteSpace=wrap;strokeColor=none;" vertex="1" parent="1">
          <mxGeometry x="660" y="205" width="70" height="40" as="geometry" />
        </mxCell>
        <mxCell id="0Y0qPALF9OUADg9IuiIY-28" value="" style="endArrow=classic;html=1;rounded=0;exitX=1;exitY=0.5;exitDx=0;exitDy=0;entryX=0.038;entryY=0.975;entryDx=0;entryDy=0;entryPerimeter=0;" edge="1" parent="1" source="0Y0qPALF9OUADg9IuiIY-12" target="0Y0qPALF9OUADg9IuiIY-24">
          <mxGeometry width="50" height="50" relative="1" as="geometry">
            <mxPoint x="680" y="370" as="sourcePoint" />
            <mxPoint x="730" y="320" as="targetPoint" />
          </mxGeometry>
        </mxCell>
        <mxCell id="0Y0qPALF9OUADg9IuiIY-30" value="" style="html=1;verticalLabelPosition=bottom;align=center;labelBackgroundColor=#ffffff;verticalAlign=top;strokeWidth=2;strokeColor=#0080F0;shadow=0;dashed=0;shape=mxgraph.ios7.icons.mail;" vertex="1" parent="1">
          <mxGeometry x="770" y="220" width="30" height="16.5" as="geometry" />
        </mxCell>
        <mxCell id="0Y0qPALF9OUADg9IuiIY-31" style="rounded=0;orthogonalLoop=1;jettySize=auto;html=1;entryX=0.133;entryY=0.081;entryDx=0;entryDy=0;entryPerimeter=0;elbow=vertical;" edge="1" parent="1">
          <mxGeometry relative="1" as="geometry">
            <mxPoint x="723" y="223.3767249018863" as="sourcePoint" />
            <mxPoint x="766.9899999999998" y="221.3365" as="targetPoint" />
          </mxGeometry>
        </mxCell>
        <mxCell id="0Y0qPALF9OUADg9IuiIY-32" style="edgeStyle=orthogonalEdgeStyle;rounded=0;orthogonalLoop=1;jettySize=auto;html=1;entryX=0.622;entryY=0.202;entryDx=0;entryDy=0;entryPerimeter=0;curved=1;" edge="1" parent="1" source="0Y0qPALF9OUADg9IuiIY-26" target="0Y0qPALF9OUADg9IuiIY-30">
          <mxGeometry relative="1" as="geometry" />
        </mxCell>
        <mxCell id="0Y0qPALF9OUADg9IuiIY-33" value="Now the PR will fail and Developer has to raise PR again" style="text;html=1;align=center;verticalAlign=middle;whiteSpace=wrap;rounded=0;" vertex="1" parent="1">
          <mxGeometry x="540" y="40" width="170" height="50" as="geometry" />
        </mxCell>
        <mxCell id="0Y0qPALF9OUADg9IuiIY-34" style="edgeStyle=orthogonalEdgeStyle;rounded=0;orthogonalLoop=1;jettySize=auto;html=1;entryX=0.737;entryY=0.159;entryDx=0;entryDy=0;entryPerimeter=0;curved=1;" edge="1" parent="1" source="0Y0qPALF9OUADg9IuiIY-33" target="0Y0qPALF9OUADg9IuiIY-30">
          <mxGeometry relative="1" as="geometry" />
        </mxCell>
        <mxCell id="0Y0qPALF9OUADg9IuiIY-41" style="edgeStyle=orthogonalEdgeStyle;rounded=0;orthogonalLoop=1;jettySize=auto;html=1;entryX=1;entryY=0.5;entryDx=0;entryDy=0;exitX=1.009;exitY=0.608;exitDx=0;exitDy=0;exitPerimeter=0;" edge="1" parent="1" source="0Y0qPALF9OUADg9IuiIY-35" target="0Y0qPALF9OUADg9IuiIY-3">
          <mxGeometry relative="1" as="geometry" />
        </mxCell>
        <mxCell id="0Y0qPALF9OUADg9IuiIY-35" value="PR is Raised" style="html=1;shadow=0;dashed=0;shape=mxgraph.bootstrap.rrect;rSize=5;strokeColor=none;strokeWidth=1;fillColor=#33A64C;fontColor=#FFFFFF;whiteSpace=wrap;align=center;verticalAlign=middle;spacingLeft=0;fontStyle=0;fontSize=16;spacing=5;" vertex="1" parent="1">
          <mxGeometry x="690" y="270" width="110" height="50" as="geometry" />
        </mxCell>
        <mxCell id="0Y0qPALF9OUADg9IuiIY-36" style="edgeStyle=orthogonalEdgeStyle;rounded=0;orthogonalLoop=1;jettySize=auto;html=1;curved=1;" edge="1" parent="1" source="0Y0qPALF9OUADg9IuiIY-20" target="0Y0qPALF9OUADg9IuiIY-35">
          <mxGeometry relative="1" as="geometry" />
        </mxCell>
        <mxCell id="0Y0qPALF9OUADg9IuiIY-37" value="now Raised PR will be seen on Azure Platform" style="text;html=1;align=center;verticalAlign=middle;whiteSpace=wrap;rounded=0;" vertex="1" parent="1">
          <mxGeometry x="800" y="120" width="170" height="50" as="geometry" />
        </mxCell>
        <mxCell id="0Y0qPALF9OUADg9IuiIY-38" style="edgeStyle=orthogonalEdgeStyle;rounded=0;orthogonalLoop=1;jettySize=auto;html=1;entryX=1.002;entryY=0.416;entryDx=0;entryDy=0;entryPerimeter=0;curved=1;" edge="1" parent="1" source="0Y0qPALF9OUADg9IuiIY-37" target="0Y0qPALF9OUADg9IuiIY-35">
          <mxGeometry relative="1" as="geometry" />
        </mxCell>
        <mxCell id="0Y0qPALF9OUADg9IuiIY-39" value="Failure Reports were generated and Stored in the Self hosted Instance Location. It could be a webPage" style="text;html=1;align=center;verticalAlign=middle;whiteSpace=wrap;rounded=0;" vertex="1" parent="1">
          <mxGeometry x="300" y="50" width="170" height="70" as="geometry" />
        </mxCell>
        <mxCell id="0Y0qPALF9OUADg9IuiIY-26" value="In case of error at any level. Send email to Distribution List (DL)" style="text;html=1;align=center;verticalAlign=middle;whiteSpace=wrap;rounded=0;" vertex="1" parent="1">
          <mxGeometry x="510" y="100" width="170" height="50" as="geometry" />
        </mxCell>
        <mxCell id="0Y0qPALF9OUADg9IuiIY-42" value="" style="image;sketch=0;aspect=fixed;html=1;points=[];align=center;fontSize=12;image=img/lib/mscae/Person.svg;" vertex="1" parent="1">
          <mxGeometry x="740.4" y="350" width="29.6" height="40" as="geometry" />
        </mxCell>
        <mxCell id="0Y0qPALF9OUADg9IuiIY-43" value="Reviewer" style="text;html=1;align=center;verticalAlign=middle;resizable=0;points=[];autosize=1;strokeColor=none;fillColor=none;" vertex="1" parent="1">
          <mxGeometry x="720.2" y="390" width="70" height="30" as="geometry" />
        </mxCell>
        <mxCell id="0Y0qPALF9OUADg9IuiIY-44" value="Merge the code&amp;nbsp;&lt;div&gt;to US Branch&lt;/div&gt;" style="text;html=1;align=center;verticalAlign=middle;resizable=0;points=[];autosize=1;strokeColor=none;fillColor=none;" vertex="1" parent="1">
          <mxGeometry x="710" y="420" width="110" height="40" as="geometry" />
        </mxCell>
        <mxCell id="0Y0qPALF9OUADg9IuiIY-62" style="edgeStyle=orthogonalEdgeStyle;rounded=0;orthogonalLoop=1;jettySize=auto;html=1;entryX=0;entryY=0.5;entryDx=0;entryDy=0;exitX=-0.009;exitY=0.454;exitDx=0;exitDy=0;exitPerimeter=0;" edge="1" parent="1" source="0Y0qPALF9OUADg9IuiIY-45" target="0Y0qPALF9OUADg9IuiIY-60">
          <mxGeometry relative="1" as="geometry">
            <Array as="points">
              <mxPoint x="20" y="463" />
              <mxPoint x="20" y="570" />
              <mxPoint x="40" y="570" />
              <mxPoint x="40" y="720" />
            </Array>
          </mxGeometry>
        </mxCell>
        <mxCell id="0Y0qPALF9OUADg9IuiIY-45" value="" style="rounded=1;whiteSpace=wrap;html=1;fillColor=none;strokeColor=#b85450;strokeWidth=5;" vertex="1" parent="1">
          <mxGeometry x="120" y="390" width="410" height="160" as="geometry" />
        </mxCell>
        <mxCell id="0Y0qPALF9OUADg9IuiIY-47" value="All 1st&amp;nbsp;&lt;div&gt;Pipeline&lt;div&gt;Steps&lt;/div&gt;&lt;/div&gt;" style="shape=step;perimeter=stepPerimeter;whiteSpace=wrap;html=1;fixedSize=1;flipH=1;" vertex="1" parent="1">
          <mxGeometry x="420" y="430" width="90" height="80" as="geometry" />
        </mxCell>
        <mxCell id="0Y0qPALF9OUADg9IuiIY-54" value="" style="group" vertex="1" connectable="0" parent="1">
          <mxGeometry x="220" y="405" width="210" height="130" as="geometry" />
        </mxCell>
        <mxCell id="0Y0qPALF9OUADg9IuiIY-51" value="" style="shape=step;perimeter=stepPerimeter;whiteSpace=wrap;html=1;fixedSize=1;flipH=1;" vertex="1" parent="0Y0qPALF9OUADg9IuiIY-54">
          <mxGeometry width="210" height="130" as="geometry" />
        </mxCell>
        <mxCell id="0Y0qPALF9OUADg9IuiIY-53" value="&lt;h1 style=&quot;margin-top: 0px;&quot;&gt;Image Creation&lt;/h1&gt;&lt;div&gt;1. Read the Docker File&lt;/div&gt;&lt;div&gt;2. Create a Docker image&lt;/div&gt;&lt;div&gt;3. Do the last image scanning&lt;/div&gt;&lt;div&gt;4. Push the image to ACR.&lt;/div&gt;" style="text;html=1;whiteSpace=wrap;overflow=hidden;rounded=0;" vertex="1" parent="0Y0qPALF9OUADg9IuiIY-54">
          <mxGeometry x="20" y="10" width="190" height="110" as="geometry" />
        </mxCell>
        <mxCell id="0Y0qPALF9OUADg9IuiIY-55" value="" style="image;sketch=0;aspect=fixed;html=1;points=[];align=center;fontSize=12;image=img/lib/mscae/Container_Registries.svg;" vertex="1" parent="1">
          <mxGeometry x="155" y="467" width="50" height="43" as="geometry" />
        </mxCell>
        <mxCell id="0Y0qPALF9OUADg9IuiIY-56" value="" style="image;sketch=0;aspect=fixed;html=1;points=[];align=center;fontSize=12;image=img/lib/mscae/Docker.svg;" vertex="1" parent="1">
          <mxGeometry x="155" y="419" width="50" height="41" as="geometry" />
        </mxCell>
        <mxCell id="0Y0qPALF9OUADg9IuiIY-57" value="&lt;h5&gt;&lt;font style=&quot;font-size: 14px;&quot;&gt;2nd CI Pipeline- Build Pipeline&lt;/font&gt;&lt;/h5&gt;" style="text;html=1;align=center;verticalAlign=middle;whiteSpace=wrap;rounded=0;" vertex="1" parent="1">
          <mxGeometry x="220" y="560" width="240" height="20" as="geometry" />
        </mxCell>
        <mxCell id="0Y0qPALF9OUADg9IuiIY-58" style="edgeStyle=orthogonalEdgeStyle;rounded=0;orthogonalLoop=1;jettySize=auto;html=1;entryX=0.992;entryY=0.593;entryDx=0;entryDy=0;entryPerimeter=0;exitX=0.5;exitY=1;exitDx=0;exitDy=0;" edge="1" parent="1" source="0Y0qPALF9OUADg9IuiIY-3" target="0Y0qPALF9OUADg9IuiIY-45">
          <mxGeometry relative="1" as="geometry" />
        </mxCell>
        <mxCell id="0Y0qPALF9OUADg9IuiIY-59" value="Trigger Actual CI pipeline" style="text;html=1;align=center;verticalAlign=middle;resizable=0;points=[];autosize=1;strokeColor=none;fillColor=none;" vertex="1" parent="1">
          <mxGeometry x="530" y="495" width="160" height="30" as="geometry" />
        </mxCell>
        <mxCell id="0Y0qPALF9OUADg9IuiIY-82" style="edgeStyle=orthogonalEdgeStyle;rounded=0;orthogonalLoop=1;jettySize=auto;html=1;entryX=0;entryY=0.5;entryDx=0;entryDy=0;exitX=0.002;exitY=0.803;exitDx=0;exitDy=0;exitPerimeter=0;" edge="1" parent="1">
          <mxGeometry relative="1" as="geometry">
            <mxPoint x="125.81999999999994" y="778.48" as="sourcePoint" />
            <mxPoint x="110" y="940" as="targetPoint" />
            <Array as="points">
              <mxPoint x="126" y="730" />
              <mxPoint x="10" y="730" />
              <mxPoint x="10" y="940" />
            </Array>
          </mxGeometry>
        </mxCell>
        <mxCell id="0Y0qPALF9OUADg9IuiIY-60" value="" style="rounded=1;whiteSpace=wrap;html=1;fillColor=none;strokeColor=#b85450;strokeWidth=5;" vertex="1" parent="1">
          <mxGeometry x="125" y="640" width="410" height="160" as="geometry" />
        </mxCell>
        <mxCell id="0Y0qPALF9OUADg9IuiIY-64" value="&lt;h5&gt;&lt;font style=&quot;font-size: 14px;&quot;&gt;1st Dev - CD Pipeline&lt;/font&gt;&lt;/h5&gt;" style="text;html=1;align=center;verticalAlign=middle;whiteSpace=wrap;rounded=0;" vertex="1" parent="1">
          <mxGeometry x="150" y="810" width="240" height="20" as="geometry" />
        </mxCell>
        <mxCell id="0Y0qPALF9OUADg9IuiIY-66" value="Manually Trigger&amp;nbsp;&lt;div&gt;the DEV&amp;nbsp;&lt;/div&gt;&lt;div&gt;CD pipeline&lt;/div&gt;" style="text;html=1;align=center;verticalAlign=middle;resizable=0;points=[];autosize=1;strokeColor=none;fillColor=none;" vertex="1" parent="1">
          <mxGeometry x="35" y="560" width="120" height="60" as="geometry" />
        </mxCell>
        <mxCell id="0Y0qPALF9OUADg9IuiIY-68" value="" style="group" vertex="1" connectable="0" parent="1">
          <mxGeometry x="140" y="650" width="260" height="140" as="geometry" />
        </mxCell>
        <mxCell id="0Y0qPALF9OUADg9IuiIY-69" value="" style="shape=step;perimeter=stepPerimeter;whiteSpace=wrap;html=1;fixedSize=1;" vertex="1" parent="0Y0qPALF9OUADg9IuiIY-68">
          <mxGeometry width="260" height="130" as="geometry" />
        </mxCell>
        <mxCell id="0Y0qPALF9OUADg9IuiIY-70" value="&lt;h1 style=&quot;margin-top: 0px;&quot;&gt;CD Steps&lt;/h1&gt;&lt;div&gt;1. Pull the image from ACR $:Latest&lt;/div&gt;&lt;div&gt;2. Get the K8&#39;s Manifest file from Azure Repo.&amp;nbsp;&lt;/div&gt;&lt;div&gt;3. run Kube CTL command&lt;/div&gt;&lt;div&gt;4. Deploy on AKS&lt;/div&gt;" style="text;html=1;whiteSpace=wrap;overflow=hidden;rounded=0;" vertex="1" parent="0Y0qPALF9OUADg9IuiIY-68">
          <mxGeometry x="30" width="220" height="140" as="geometry" />
        </mxCell>
        <mxCell id="0Y0qPALF9OUADg9IuiIY-71" value="Do the Post&lt;div&gt;deployment&amp;nbsp;&lt;/div&gt;&lt;div&gt;checks like all&amp;nbsp;&lt;/div&gt;&lt;div&gt;pods, instances&lt;/div&gt;&lt;div&gt;are running&amp;nbsp;&lt;/div&gt;&lt;div&gt;fine or not&lt;/div&gt;" style="shape=step;perimeter=stepPerimeter;whiteSpace=wrap;html=1;fixedSize=1;" vertex="1" parent="1">
          <mxGeometry x="400" y="650" width="120" height="130" as="geometry" />
        </mxCell>
        <mxCell id="0Y0qPALF9OUADg9IuiIY-72" value="DEV Environment" style="image;aspect=fixed;html=1;points=[];align=center;fontSize=12;image=img/lib/azure2/preview/Web_Environment.svg;" vertex="1" parent="1">
          <mxGeometry x="565" y="680" width="64" height="66" as="geometry" />
        </mxCell>
        <mxCell id="0Y0qPALF9OUADg9IuiIY-73" value="" style="rounded=1;whiteSpace=wrap;html=1;fillColor=none;strokeColor=#b85450;strokeWidth=5;" vertex="1" parent="1">
          <mxGeometry x="110" y="850" width="410" height="160" as="geometry" />
        </mxCell>
        <mxCell id="0Y0qPALF9OUADg9IuiIY-74" value="" style="group" vertex="1" connectable="0" parent="1">
          <mxGeometry x="130" y="860" width="260" height="140" as="geometry" />
        </mxCell>
        <mxCell id="0Y0qPALF9OUADg9IuiIY-75" value="" style="shape=step;perimeter=stepPerimeter;whiteSpace=wrap;html=1;fixedSize=1;" vertex="1" parent="0Y0qPALF9OUADg9IuiIY-74">
          <mxGeometry width="260" height="130" as="geometry" />
        </mxCell>
        <mxCell id="0Y0qPALF9OUADg9IuiIY-76" value="&lt;h1 style=&quot;margin-top: 0px;&quot;&gt;CD Steps&lt;/h1&gt;&lt;div&gt;1. Pull the image from ACR&lt;/div&gt;&lt;div&gt;2. Get the K8&#39;s Manifest file from Azure Repo.&amp;nbsp;&lt;/div&gt;&lt;div&gt;3. run Kube CTL command&lt;/div&gt;&lt;div&gt;4. Deploy on AKS&lt;/div&gt;" style="text;html=1;whiteSpace=wrap;overflow=hidden;rounded=0;" vertex="1" parent="0Y0qPALF9OUADg9IuiIY-74">
          <mxGeometry x="30" width="220" height="140" as="geometry" />
        </mxCell>
        <mxCell id="0Y0qPALF9OUADg9IuiIY-77" value="Do the Post&lt;div&gt;deployment&amp;nbsp;&lt;/div&gt;&lt;div&gt;checks like all&amp;nbsp;&lt;/div&gt;&lt;div&gt;pods, instances&lt;/div&gt;&lt;div&gt;are running&amp;nbsp;&lt;/div&gt;&lt;div&gt;fine or not&lt;/div&gt;" style="shape=step;perimeter=stepPerimeter;whiteSpace=wrap;html=1;fixedSize=1;" vertex="1" parent="1">
          <mxGeometry x="380" y="860" width="120" height="130" as="geometry" />
        </mxCell>
        <mxCell id="0Y0qPALF9OUADg9IuiIY-78" value="&lt;h5&gt;&lt;font style=&quot;font-size: 14px;&quot;&gt;2nd, 3rd, 4th Different for Stage, UAT, Prod- CD Pipeline&lt;/font&gt;&lt;/h5&gt;" style="text;html=1;align=center;verticalAlign=middle;whiteSpace=wrap;rounded=0;" vertex="1" parent="1">
          <mxGeometry x="155" y="1020" width="240" height="50" as="geometry" />
        </mxCell>
        <mxCell id="0Y0qPALF9OUADg9IuiIY-83" value="After Successful dev,&lt;div&gt;&amp;nbsp;Manully run&lt;/div&gt;" style="text;html=1;align=center;verticalAlign=middle;resizable=0;points=[];autosize=1;strokeColor=none;fillColor=none;" vertex="1" parent="1">
          <mxGeometry x="10" y="810" width="140" height="40" as="geometry" />
        </mxCell>
      </root>
    </mxGraphModel>
  </diagram>
</mxfile>
